<mxfile host="app.diagrams.net" modified="2024-04-07T14:12:13.564Z" agent="Mozilla/5.0 (Macintosh; Intel Mac OS X 10_15_7) AppleWebKit/537.36 (KHTML, like Gecko) Chrome/123.0.0.0 Safari/537.36" etag="Wyouq7xnbC-HdO1doJLD" version="24.2.2" type="device">
  <diagram name="Page-1" id="L4L-koXkLy3wFbUOasUm">
    <mxGraphModel dx="1183" dy="1121" grid="1" gridSize="10" guides="1" tooltips="1" connect="1" arrows="1" fold="1" page="1" pageScale="1" pageWidth="827" pageHeight="1169" math="0" shadow="0">
      <root>
        <mxCell id="0" />
        <mxCell id="1" parent="0" />
        <mxCell id="bHeEBh-YVMt87xhCcxiK-1" value="MoJ AWS Cloud" style="sketch=0;outlineConnect=0;gradientColor=none;html=1;whiteSpace=wrap;fontSize=12;fontStyle=0;shape=mxgraph.aws4.group;grIcon=mxgraph.aws4.group_aws_cloud;strokeColor=#AAB7B8;fillColor=none;verticalAlign=top;align=left;spacingLeft=30;fontColor=#AAB7B8;dashed=0;" vertex="1" parent="1">
          <mxGeometry x="150" y="40" width="670" height="760" as="geometry" />
        </mxCell>
        <mxCell id="bHeEBh-YVMt87xhCcxiK-2" value="Analytics and Insight" style="rounded=0;whiteSpace=wrap;html=1;dashed=1;verticalAlign=top;fontStyle=1" vertex="1" parent="1">
          <mxGeometry x="690" y="80" width="110" height="680" as="geometry" />
        </mxCell>
        <mxCell id="bHeEBh-YVMt87xhCcxiK-3" value="Data Ingestion" style="rounded=0;whiteSpace=wrap;html=1;dashed=1;verticalAlign=top;fontStyle=1" vertex="1" parent="1">
          <mxGeometry x="188" y="80" width="110" height="680" as="geometry" />
        </mxCell>
        <mxCell id="bHeEBh-YVMt87xhCcxiK-4" value="Data Sources" style="rounded=0;whiteSpace=wrap;html=1;dashed=1;verticalAlign=top;fontStyle=1" vertex="1" parent="1">
          <mxGeometry x="20" y="80" width="100" height="680" as="geometry" />
        </mxCell>
        <mxCell id="bHeEBh-YVMt87xhCcxiK-5" value="SQL&lt;br&gt;DBs" style="shape=cylinder3;whiteSpace=wrap;html=1;boundedLbl=1;backgroundOutline=1;size=15;verticalAlign=middle;" vertex="1" parent="1">
          <mxGeometry x="43.75" y="159" width="52.5" height="70" as="geometry" />
        </mxCell>
        <mxCell id="bHeEBh-YVMt87xhCcxiK-6" value="File Shares" style="sketch=0;pointerEvents=1;shadow=0;dashed=0;html=1;strokeColor=none;fillColor=#505050;labelPosition=center;verticalLabelPosition=bottom;verticalAlign=top;outlineConnect=0;align=center;shape=mxgraph.office.services.network_file_share_service;" vertex="1" parent="1">
          <mxGeometry x="42.5" y="360" width="55" height="53" as="geometry" />
        </mxCell>
        <mxCell id="bHeEBh-YVMt87xhCcxiK-7" value="APIs" style="sketch=0;pointerEvents=1;shadow=0;dashed=0;html=1;strokeColor=none;fillColor=#DF8C42;labelPosition=center;verticalLabelPosition=bottom;verticalAlign=top;align=center;outlineConnect=0;shape=mxgraph.veeam2.restful_api;" vertex="1" parent="1">
          <mxGeometry x="45" y="495" width="50" height="50" as="geometry" />
        </mxCell>
        <mxCell id="bHeEBh-YVMt87xhCcxiK-8" value="S3 Buckets" style="sketch=0;points=[[0,0,0],[0.25,0,0],[0.5,0,0],[0.75,0,0],[1,0,0],[0,1,0],[0.25,1,0],[0.5,1,0],[0.75,1,0],[1,1,0],[0,0.25,0],[0,0.5,0],[0,0.75,0],[1,0.25,0],[1,0.5,0],[1,0.75,0]];outlineConnect=0;fontColor=#232F3E;gradientColor=#60A337;gradientDirection=north;fillColor=#277116;strokeColor=#ffffff;dashed=0;verticalLabelPosition=bottom;verticalAlign=top;align=center;html=1;fontSize=12;fontStyle=0;aspect=fixed;shape=mxgraph.aws4.resourceIcon;resIcon=mxgraph.aws4.s3;" vertex="1" parent="1">
          <mxGeometry x="45" y="577" width="50" height="50" as="geometry" />
        </mxCell>
        <mxCell id="bHeEBh-YVMt87xhCcxiK-9" value="Azure Blob &lt;br&gt;Storage" style="aspect=fixed;html=1;points=[];align=center;image;fontSize=12;image=img/lib/azure2/general/Blob_Block.svg;" vertex="1" parent="1">
          <mxGeometry x="45" y="665" width="50" height="40" as="geometry" />
        </mxCell>
        <mxCell id="bHeEBh-YVMt87xhCcxiK-10" value="AWS Database &lt;br&gt;Migration Service" style="sketch=0;points=[[0,0,0],[0.25,0,0],[0.5,0,0],[0.75,0,0],[1,0,0],[0,1,0],[0.25,1,0],[0.5,1,0],[0.75,1,0],[1,1,0],[0,0.25,0],[0,0.5,0],[0,0.75,0],[1,0.25,0],[1,0.5,0],[1,0.75,0]];outlineConnect=0;fontColor=#232F3E;gradientColor=#4D72F3;gradientDirection=north;fillColor=#3334B9;strokeColor=#ffffff;dashed=0;verticalLabelPosition=bottom;verticalAlign=top;align=center;html=1;fontSize=12;fontStyle=0;aspect=fixed;shape=mxgraph.aws4.resourceIcon;resIcon=mxgraph.aws4.database_migration_service;" vertex="1" parent="1">
          <mxGeometry x="218" y="126" width="50" height="50" as="geometry" />
        </mxCell>
        <mxCell id="bHeEBh-YVMt87xhCcxiK-11" value="SQL &lt;br&gt;query/dump" style="sketch=0;pointerEvents=1;shadow=0;dashed=0;html=1;strokeColor=none;fillColor=#005F4B;labelPosition=center;verticalLabelPosition=bottom;verticalAlign=top;align=center;outlineConnect=0;shape=mxgraph.veeam2.magnifying_glass;" vertex="1" parent="1">
          <mxGeometry x="218" y="217" width="50" height="50" as="geometry" />
        </mxCell>
        <mxCell id="bHeEBh-YVMt87xhCcxiK-12" value="SFTP" style="sketch=0;points=[[0,0,0],[0.25,0,0],[0.5,0,0],[0.75,0,0],[1,0,0],[0,1,0],[0.25,1,0],[0.5,1,0],[0.75,1,0],[1,1,0],[0,0.25,0],[0,0.5,0],[0,0.75,0],[1,0.25,0],[1,0.5,0],[1,0.75,0]];outlineConnect=0;fontColor=#232F3E;gradientColor=#4AB29A;gradientDirection=north;fillColor=#116D5B;strokeColor=#ffffff;dashed=0;verticalLabelPosition=bottom;verticalAlign=top;align=center;html=1;fontSize=12;fontStyle=0;aspect=fixed;shape=mxgraph.aws4.resourceIcon;resIcon=mxgraph.aws4.transfer_for_sftp;" vertex="1" parent="1">
          <mxGeometry x="218" y="321.5" width="50" height="50" as="geometry" />
        </mxCell>
        <mxCell id="bHeEBh-YVMt87xhCcxiK-13" value="API Gateway" style="sketch=0;points=[[0,0,0],[0.25,0,0],[0.5,0,0],[0.75,0,0],[1,0,0],[0,1,0],[0.25,1,0],[0.5,1,0],[0.75,1,0],[1,1,0],[0,0.25,0],[0,0.5,0],[0,0.75,0],[1,0.25,0],[1,0.5,0],[1,0.75,0]];outlineConnect=0;fontColor=#232F3E;gradientColor=#945DF2;gradientDirection=north;fillColor=#5A30B5;strokeColor=#ffffff;dashed=0;verticalLabelPosition=bottom;verticalAlign=top;align=center;html=1;fontSize=12;fontStyle=0;aspect=fixed;shape=mxgraph.aws4.resourceIcon;resIcon=mxgraph.aws4.api_gateway;" vertex="1" parent="1">
          <mxGeometry x="218" y="401.5" width="50" height="50" as="geometry" />
        </mxCell>
        <mxCell id="bHeEBh-YVMt87xhCcxiK-15" value="" style="edgeStyle=elbowEdgeStyle;elbow=horizontal;endArrow=classic;html=1;curved=0;rounded=0;endSize=8;startSize=8;exitX=1;exitY=0.5;exitDx=0;exitDy=0;exitPerimeter=0;" edge="1" parent="1" source="bHeEBh-YVMt87xhCcxiK-5" target="bHeEBh-YVMt87xhCcxiK-10">
          <mxGeometry width="50" height="50" relative="1" as="geometry">
            <mxPoint x="270" y="350" as="sourcePoint" />
            <mxPoint x="320" y="300" as="targetPoint" />
          </mxGeometry>
        </mxCell>
        <mxCell id="bHeEBh-YVMt87xhCcxiK-16" value="" style="edgeStyle=elbowEdgeStyle;elbow=horizontal;endArrow=classic;html=1;curved=0;rounded=0;endSize=8;startSize=8;exitX=1;exitY=0.5;exitDx=0;exitDy=0;exitPerimeter=0;" edge="1" parent="1" source="bHeEBh-YVMt87xhCcxiK-5" target="bHeEBh-YVMt87xhCcxiK-11">
          <mxGeometry width="50" height="50" relative="1" as="geometry">
            <mxPoint x="115.5" y="204" as="sourcePoint" />
            <mxPoint x="229" y="143" as="targetPoint" />
          </mxGeometry>
        </mxCell>
        <mxCell id="bHeEBh-YVMt87xhCcxiK-17" value="" style="edgeStyle=elbowEdgeStyle;elbow=horizontal;endArrow=classic;html=1;curved=0;rounded=0;endSize=8;startSize=8;entryX=0;entryY=0.5;entryDx=0;entryDy=0;entryPerimeter=0;" edge="1" parent="1" source="bHeEBh-YVMt87xhCcxiK-6" target="bHeEBh-YVMt87xhCcxiK-12">
          <mxGeometry width="50" height="50" relative="1" as="geometry">
            <mxPoint x="125.5" y="214" as="sourcePoint" />
            <mxPoint x="239" y="153" as="targetPoint" />
          </mxGeometry>
        </mxCell>
        <mxCell id="bHeEBh-YVMt87xhCcxiK-18" value="" style="edgeStyle=elbowEdgeStyle;elbow=horizontal;endArrow=classic;html=1;curved=0;rounded=0;endSize=8;startSize=8;entryX=0;entryY=0.5;entryDx=0;entryDy=0;entryPerimeter=0;" edge="1" parent="1" source="bHeEBh-YVMt87xhCcxiK-6" target="bHeEBh-YVMt87xhCcxiK-13">
          <mxGeometry width="50" height="50" relative="1" as="geometry">
            <mxPoint x="120" y="396.5" as="sourcePoint" />
            <mxPoint x="229" y="356.5" as="targetPoint" />
          </mxGeometry>
        </mxCell>
        <mxCell id="bHeEBh-YVMt87xhCcxiK-19" value="" style="endArrow=classic;html=1;" edge="1" parent="1" source="bHeEBh-YVMt87xhCcxiK-7">
          <mxGeometry width="50" height="50" relative="1" as="geometry">
            <mxPoint x="140" y="550" as="sourcePoint" />
            <mxPoint x="216.6199999999999" y="520" as="targetPoint" />
          </mxGeometry>
        </mxCell>
        <mxCell id="bHeEBh-YVMt87xhCcxiK-20" value="Data Lake" style="rounded=0;whiteSpace=wrap;html=1;dashed=1;verticalAlign=top;fontStyle=1" vertex="1" parent="1">
          <mxGeometry x="359" y="80" width="110" height="680" as="geometry" />
        </mxCell>
        <mxCell id="bHeEBh-YVMt87xhCcxiK-21" value="S3 Buckets" style="sketch=0;points=[[0,0,0],[0.25,0,0],[0.5,0,0],[0.75,0,0],[1,0,0],[0,1,0],[0.25,1,0],[0.5,1,0],[0.75,1,0],[1,1,0],[0,0.25,0],[0,0.5,0],[0,0.75,0],[1,0.25,0],[1,0.5,0],[1,0.75,0]];outlineConnect=0;fontColor=#232F3E;gradientColor=#60A337;gradientDirection=north;fillColor=#277116;strokeColor=#ffffff;dashed=0;verticalLabelPosition=bottom;verticalAlign=top;align=center;html=1;fontSize=12;fontStyle=0;aspect=fixed;shape=mxgraph.aws4.resourceIcon;resIcon=mxgraph.aws4.s3;" vertex="1" parent="1">
          <mxGeometry x="389" y="126" width="50" height="50" as="geometry" />
        </mxCell>
        <mxCell id="bHeEBh-YVMt87xhCcxiK-22" value="AWS Glue &lt;br&gt;Data Catalog&amp;nbsp;" style="sketch=0;outlineConnect=0;fontColor=#232F3E;gradientColor=none;fillColor=#4D27AA;strokeColor=none;dashed=0;verticalLabelPosition=bottom;verticalAlign=top;align=center;html=1;fontSize=12;fontStyle=0;aspect=fixed;pointerEvents=1;shape=mxgraph.aws4.glue_data_catalog;" vertex="1" parent="1">
          <mxGeometry x="390.925" y="261" width="46.15" height="50" as="geometry" />
        </mxCell>
        <mxCell id="bHeEBh-YVMt87xhCcxiK-24" value="IAM" style="sketch=0;outlineConnect=0;fontColor=#232F3E;gradientColor=none;fillColor=#DD344C;strokeColor=none;dashed=0;verticalLabelPosition=bottom;verticalAlign=top;align=center;html=1;fontSize=12;fontStyle=0;aspect=fixed;pointerEvents=1;shape=mxgraph.aws4.role;" vertex="1" parent="1">
          <mxGeometry x="387.08" y="676.79" width="50" height="28.21" as="geometry" />
        </mxCell>
        <mxCell id="bHeEBh-YVMt87xhCcxiK-25" value="" style="edgeStyle=elbowEdgeStyle;elbow=horizontal;endArrow=classic;html=1;curved=0;rounded=0;endSize=8;startSize=8;exitX=0.982;exitY=0.104;exitDx=0;exitDy=0;exitPerimeter=0;entryX=0;entryY=0.5;entryDx=0;entryDy=0;entryPerimeter=0;" edge="1" parent="1" source="bHeEBh-YVMt87xhCcxiK-3" target="bHeEBh-YVMt87xhCcxiK-21">
          <mxGeometry width="50" height="50" relative="1" as="geometry">
            <mxPoint x="270" y="350" as="sourcePoint" />
            <mxPoint x="320" y="300" as="targetPoint" />
          </mxGeometry>
        </mxCell>
        <mxCell id="bHeEBh-YVMt87xhCcxiK-26" value="" style="edgeStyle=elbowEdgeStyle;elbow=horizontal;endArrow=classic;html=1;curved=0;rounded=0;endSize=8;startSize=8;exitX=1;exitY=0.5;exitDx=0;exitDy=0;exitPerimeter=0;entryX=0;entryY=0.5;entryDx=0;entryDy=0;entryPerimeter=0;" edge="1" parent="1" source="bHeEBh-YVMt87xhCcxiK-8" target="bHeEBh-YVMt87xhCcxiK-21">
          <mxGeometry width="50" height="50" relative="1" as="geometry">
            <mxPoint x="270" y="400" as="sourcePoint" />
            <mxPoint x="320" y="350" as="targetPoint" />
            <Array as="points">
              <mxPoint x="330" y="390" />
            </Array>
          </mxGeometry>
        </mxCell>
        <mxCell id="bHeEBh-YVMt87xhCcxiK-27" value="" style="edgeStyle=elbowEdgeStyle;elbow=horizontal;endArrow=classic;html=1;curved=0;rounded=0;endSize=8;startSize=8;" edge="1" parent="1" source="bHeEBh-YVMt87xhCcxiK-9" target="bHeEBh-YVMt87xhCcxiK-21">
          <mxGeometry width="50" height="50" relative="1" as="geometry">
            <mxPoint x="270" y="480" as="sourcePoint" />
            <mxPoint x="320" y="430" as="targetPoint" />
            <Array as="points">
              <mxPoint x="330" y="430" />
            </Array>
          </mxGeometry>
        </mxCell>
        <mxCell id="bHeEBh-YVMt87xhCcxiK-28" value="Data Processing" style="rounded=0;whiteSpace=wrap;html=1;dashed=1;verticalAlign=top;fontStyle=1" vertex="1" parent="1">
          <mxGeometry x="520" y="80" width="120" height="570" as="geometry" />
        </mxCell>
        <mxCell id="bHeEBh-YVMt87xhCcxiK-29" value="SQL-based ETL" style="rounded=0;whiteSpace=wrap;html=1;fillColor=#f5f5f5;fontColor=#333333;strokeColor=none;verticalAlign=top;fontStyle=1;fontSize=11;" vertex="1" parent="1">
          <mxGeometry x="530" y="121" width="100" height="219" as="geometry" />
        </mxCell>
        <mxCell id="bHeEBh-YVMt87xhCcxiK-30" value="Amazon&lt;br&gt;Athena" style="sketch=0;points=[[0,0,0],[0.25,0,0],[0.5,0,0],[0.75,0,0],[1,0,0],[0,1,0],[0.25,1,0],[0.5,1,0],[0.75,1,0],[1,1,0],[0,0.25,0],[0,0.5,0],[0,0.75,0],[1,0.25,0],[1,0.5,0],[1,0.75,0]];outlineConnect=0;fontColor=#232F3E;gradientColor=#945DF2;gradientDirection=north;fillColor=#5A30B5;strokeColor=#ffffff;dashed=0;verticalLabelPosition=bottom;verticalAlign=top;align=center;html=1;fontSize=12;fontStyle=0;aspect=fixed;shape=mxgraph.aws4.resourceIcon;resIcon=mxgraph.aws4.athena;" vertex="1" parent="1">
          <mxGeometry x="555" y="159" width="50" height="50" as="geometry" />
        </mxCell>
        <mxCell id="bHeEBh-YVMt87xhCcxiK-32" value="&lt;b style=&quot;font-size: 11px;&quot;&gt;Pre-processing&lt;br style=&quot;font-size: 11px;&quot;&gt;Machine Learning Workflows&lt;/b&gt;" style="rounded=0;whiteSpace=wrap;html=1;fillColor=#f5f5f5;fontColor=#333333;strokeColor=none;verticalAlign=top;fontSize=11;" vertex="1" parent="1">
          <mxGeometry x="530" y="360" width="100" height="280" as="geometry" />
        </mxCell>
        <mxCell id="bHeEBh-YVMt87xhCcxiK-34" value="Amazon Managed &lt;br&gt;Workflows for &lt;br&gt;Apache Airflow" style="sketch=0;points=[[0,0,0],[0.25,0,0],[0.5,0,0],[0.75,0,0],[1,0,0],[0,1,0],[0.25,1,0],[0.5,1,0],[0.75,1,0],[1,1,0],[0,0.25,0],[0,0.5,0],[0,0.75,0],[1,0.25,0],[1,0.5,0],[1,0.75,0]];outlineConnect=0;fontColor=#232F3E;gradientColor=#FF4F8B;gradientDirection=north;fillColor=#BC1356;strokeColor=#ffffff;dashed=0;verticalLabelPosition=bottom;verticalAlign=top;align=center;html=1;fontSize=12;fontStyle=0;aspect=fixed;shape=mxgraph.aws4.resourceIcon;resIcon=mxgraph.aws4.managed_workflows_for_apache_airflow;" vertex="1" parent="1">
          <mxGeometry x="555" y="524" width="50" height="50" as="geometry" />
        </mxCell>
        <mxCell id="bHeEBh-YVMt87xhCcxiK-35" value="" style="endArrow=classic;startArrow=classic;html=1;" edge="1" parent="1">
          <mxGeometry width="50" height="50" relative="1" as="geometry">
            <mxPoint x="470" y="380" as="sourcePoint" />
            <mxPoint x="520" y="380" as="targetPoint" />
          </mxGeometry>
        </mxCell>
        <mxCell id="bHeEBh-YVMt87xhCcxiK-36" value="" style="endArrow=classic;startArrow=classic;html=1;entryX=-0.018;entryY=0.435;entryDx=0;entryDy=0;entryPerimeter=0;" edge="1" parent="1" target="bHeEBh-YVMt87xhCcxiK-2">
          <mxGeometry width="50" height="50" relative="1" as="geometry">
            <mxPoint x="640" y="376" as="sourcePoint" />
            <mxPoint x="580" y="230" as="targetPoint" />
          </mxGeometry>
        </mxCell>
        <mxCell id="bHeEBh-YVMt87xhCcxiK-37" value="Amazon&lt;br&gt;Athena" style="sketch=0;points=[[0,0,0],[0.25,0,0],[0.5,0,0],[0.75,0,0],[1,0,0],[0,1,0],[0.25,1,0],[0.5,1,0],[0.75,1,0],[1,1,0],[0,0.25,0],[0,0.5,0],[0,0.75,0],[1,0.25,0],[1,0.5,0],[1,0.75,0]];outlineConnect=0;fontColor=#232F3E;gradientColor=#945DF2;gradientDirection=north;fillColor=#5A30B5;strokeColor=#ffffff;dashed=0;verticalLabelPosition=bottom;verticalAlign=top;align=center;html=1;fontSize=12;fontStyle=0;aspect=fixed;shape=mxgraph.aws4.resourceIcon;resIcon=mxgraph.aws4.athena;" vertex="1" parent="1">
          <mxGeometry x="717" y="126" width="50" height="50" as="geometry" />
        </mxCell>
        <mxCell id="bHeEBh-YVMt87xhCcxiK-38" value="" style="endArrow=classic;startArrow=classic;html=1;exitX=0.47;exitY=0.868;exitDx=0;exitDy=0;exitPerimeter=0;entryX=-0.036;entryY=0.912;entryDx=0;entryDy=0;entryPerimeter=0;" edge="1" parent="1">
          <mxGeometry width="50" height="50" relative="1" as="geometry">
            <mxPoint x="468.9000000000001" y="699.6799999999998" as="sourcePoint" />
            <mxPoint x="690.04" y="700.1599999999999" as="targetPoint" />
          </mxGeometry>
        </mxCell>
        <mxCell id="bHeEBh-YVMt87xhCcxiK-40" value="" style="shape=image;verticalLabelPosition=bottom;labelBackgroundColor=default;verticalAlign=top;aspect=fixed;imageAspect=0;image=https://raw.githubusercontent.com/rstudio/hex-stickers/ce526bb5880f348c6970f44f9d8001eb504c4cf6/SVG/RStudio.svg;" vertex="1" parent="1">
          <mxGeometry x="715" y="521" width="60" height="69.23" as="geometry" />
        </mxCell>
        <mxCell id="bHeEBh-YVMt87xhCcxiK-41" value="DataHub" style="shape=image;verticalLabelPosition=bottom;labelBackgroundColor=default;verticalAlign=top;aspect=fixed;imageAspect=0;image=data:image/svg+xml,PHN2ZyB4bWxuczp4bGluaz0iaHR0cDovL3d3dy53My5vcmcvMTk5OS94bGluayIgeG1sbnM9Imh0dHA6Ly93d3cudzMub3JnLzIwMDAvc3ZnIiB2aWV3Qm94PSIwIDAgMTUxLjkyIDEzMC4yNiI+PGxpbmVhckdyYWRpZW50IHkyPSI1MC42NiIgeTE9IjEyNi42NCIgeDI9IjM1Ljc5IiB4MT0iOTEuMDgiIGdyYWRpZW50VW5pdHM9InVzZXJTcGFjZU9uVXNlIiBpZD0iYSI+PHN0b3Agc3RvcC1jb2xvcj0iI2VmYWIwMCIgb2Zmc2V0PSIwIi8+PHN0b3Agc3RvcC1jb2xvcj0iI2VmYjcwMCIgb2Zmc2V0PSIxIi8+PC9saW5lYXJHcmFkaWVudD48bGluZWFyR3JhZGllbnQgeTI9IjQwLjY3IiB5MT0iNjguODgiIHgyPSI5OC43NCIgeDE9IjgzLjA2IiBncmFkaWVudFVuaXRzPSJ1c2VyU3BhY2VPblVzZSIgaWQ9ImIiPjxzdG9wIHN0b3AtY29sb3I9IiNkZDMxNjMiIG9mZnNldD0iMCIvPjxzdG9wIHN0b3AtY29sb3I9IiNmZjU2NjMiIG9mZnNldD0iMSIvPjwvbGluZWFyR3JhZGllbnQ+PGxpbmVhckdyYWRpZW50IHkyPSIxNy4xNyIgeTE9Ijk2LjgyIiB4Mj0iMTQ0LjQyIiB4MT0iNTAuMjIiIGdyYWRpZW50VW5pdHM9InVzZXJTcGFjZU9uVXNlIiBpZD0iYyI+PHN0b3Agc3RvcC1jb2xvcj0iIzE4OTBmZiIgb2Zmc2V0PSIuMDMiLz48c3RvcCBzdG9wLWNvbG9yPSIjMThiNWZmIiBvZmZzZXQ9IjEiLz48L2xpbmVhckdyYWRpZW50PjxwYXRoIGZpbGw9InVybCgjYSkiIGQ9Im04OC4zNyAxMDQuMjlhNDEuNTUgNDEuNTUgMCAxIDEgLTEtNzguNzEgMy44NSAzLjg1IDAgMCAwIDQuNzMtMi4xOSAzLjkxIDMuOTEgMCAwIDAgLTIuNDEtNS4yNCA0OSA0OSAwIDAgMCAtMTQuNjYtMi4zOCA0OS4zIDQ5LjMgMCAwIDAgLTQ0LjAzIDcyLjVsLTE1LjI1IDkuNjRhOS45NCA5Ljk0IDAgMCAwIC02LjgzLTEuNzQgMTAgMTAgMCAxIDAgMTEuMTMgMTAgOS44IDkuOCAwIDAgMCAtLjE1LTEuNjRsMTUuMjktOS42N2E0OS4zMiA0OS4zMiAwIDAgMCA1NS43MiAxNi44MiAzLjkgMy45IDAgMCAwIDIuMjYtNS4yOCAzLjg3IDMuODcgMCAwIDAgLTQuOC0yLjExeiIvPjxwYXRoIGZpbGw9InVybCgjYikiIGQ9Im03NC41MyA5NC4xMmEzLjkgMy45IDAgMCAxIDMuNDEtMy44NiAyNS4zNiAyNS4zNiAwIDAgMCAwLTUwLjI2IDMuOTEgMy45MSAwIDAgMSAtMy40MS0zLjg2IDMuODggMy44OCAwIDAgMSA0LjM0LTMuODcgMzMuMTQgMzMuMTQgMCAwIDEgMCA2NS43MiAzLjg4IDMuODggMCAwIDEgLTQuMzQtMy44N3oiLz48cGF0aCBmaWxsPSJ1cmwoI2MpIiBkPSJtMTQxLjE2IDguNDVhMTAgMTAgMCAwIDAgLTkuMDggMTJsLTYuNTggNC4xNmE2NS4wOCA2NS4wOCAwIDAgMCAtNDYuODgtMjQuNDggMy44OCAzLjg4IDAgMCAwIC00LjA5IDMuODcgMy45MSAzLjkxIDAgMCAwIDMuNyAzLjg4IDU3LjQyIDU3LjQyIDAgMCAxIDUzLjY0IDU2LjM0Yy40OSAzMS41LTI1Ljc1IDU4LjItNTcuMjYgNTguMjRhNTYuODkgNTYuODkgMCAwIDEgLTM3LjYxLTE0IDMuOSAzLjkgMCAwIDAgLTQuNjktLjM1IDMuOSAzLjkgMCAwIDAgLS40NCA2LjIyIDY0LjYyIDY0LjYyIDAgMCAwIDQzLjkzIDE1LjkgNjUuMDkgNjUuMDkgMCAwIDAgNTQuMi05OS4yM2w2LjUzLTQuMTNhMTAgMTAgMCAxIDAgNC42NC0xOC40NHoiLz48L3N2Zz4=;" vertex="1" parent="1">
          <mxGeometry x="720" y="665" width="60" height="51.31" as="geometry" />
        </mxCell>
        <mxCell id="bHeEBh-YVMt87xhCcxiK-44" value="Python" style="shape=image;verticalLabelPosition=bottom;labelBackgroundColor=none;verticalAlign=top;aspect=fixed;imageAspect=0;image=https://upload.wikimedia.org/wikipedia/commons/thumb/c/c3/Python-logo-notext.svg/115px-Python-logo-notext.svg.png;" vertex="1" parent="1">
          <mxGeometry x="550" y="430" width="50" height="54.78" as="geometry" />
        </mxCell>
        <mxCell id="bHeEBh-YVMt87xhCcxiK-45" value="Python" style="shape=image;verticalLabelPosition=bottom;labelBackgroundColor=none;verticalAlign=top;aspect=fixed;imageAspect=0;image=https://upload.wikimedia.org/wikipedia/commons/thumb/c/c3/Python-logo-notext.svg/115px-Python-logo-notext.svg.png;" vertex="1" parent="1">
          <mxGeometry x="218" y="495" width="50" height="54.78" as="geometry" />
        </mxCell>
        <mxCell id="bHeEBh-YVMt87xhCcxiK-46" value="Apache Hive &#xa;table format" style="shape=image;verticalLabelPosition=bottom;labelBackgroundColor=default;verticalAlign=top;aspect=fixed;imageAspect=0;image=https://upload.wikimedia.org/wikipedia/commons/thumb/b/bb/Apache_Hive_logo.svg/666px-Apache_Hive_logo.svg.png;" vertex="1" parent="1">
          <mxGeometry x="389" y="398" width="50" height="44.97" as="geometry" />
        </mxCell>
        <mxCell id="bHeEBh-YVMt87xhCcxiK-47" value="Apache Iceberg" style="shape=image;verticalLabelPosition=bottom;labelBackgroundColor=default;verticalAlign=top;aspect=fixed;imageAspect=0;image=https://py.iceberg.apache.org/assets/images/iceberg-logo-icon.png;" vertex="1" parent="1">
          <mxGeometry x="387.08" y="531" width="50" height="50" as="geometry" />
        </mxCell>
        <mxCell id="bHeEBh-YVMt87xhCcxiK-48" value="VScode" style="shape=image;verticalLabelPosition=bottom;labelBackgroundColor=default;verticalAlign=top;aspect=fixed;imageAspect=0;image=data:image/svg+xml,PHN2ZyB4bWxucz0iaHR0cDovL3d3dy53My5vcmcvMjAwMC9zdmciIGZpbGw9Im5vbmUiIHZpZXdCb3g9IjAgMCAxMDAgMTAwIiBoZWlnaHQ9IjEwMCIgd2lkdGg9IjEwMCI+JiN4YTs8bWFzayBoZWlnaHQ9IjEwMCIgd2lkdGg9IjEwMCIgeT0iMCIgeD0iMCIgbWFza1VuaXRzPSJ1c2VyU3BhY2VPblVzZSIgaWQ9Im1hc2swIj4mI3hhOzxwYXRoIGZpbGw9IndoaXRlIiBkPSJNNzAuOTExOSA5OS4zMTcxQzcyLjQ4NjkgOTkuOTMwNyA3NC4yODI4IDk5Ljg5MTQgNzUuODcyNSA5OS4xMjY0TDk2LjQ2MDggODkuMjE5N0M5OC42MjQyIDg4LjE3ODcgMTAwIDg1Ljk4OTIgMTAwIDgzLjU4NzJWMTYuNDEzM0MxMDAgMTQuMDExMyA5OC42MjQzIDExLjgyMTggOTYuNDYwOSAxMC43ODA4TDc1Ljg3MjUgMC44NzM3NTZDNzMuNzg2MiAtMC4xMzAxMjkgNzEuMzQ0NiAwLjExNTc2IDY5LjUxMzUgMS40NDY5NUM2OS4yNTIgMS42MzcxMSA2OS4wMDI4IDEuODQ5NDMgNjguNzY5IDIuMDgzNDFMMjkuMzU1MSAzOC4wNDE1TDEyLjE4NzIgMjUuMDA5NkMxMC41ODkgMjMuNzk2NSA4LjM1MzYzIDIzLjg5NTkgNi44NjkzMyAyNS4yNDYxTDEuMzYzMDMgMzAuMjU0OUMtMC40NTI1NTIgMzEuOTA2NCAtMC40NTQ2MzMgMzQuNzYyNyAxLjM1ODUzIDM2LjQxN0wxNi4yNDcxIDUwLjAwMDFMMS4zNTg1MyA2My41ODMyQy0wLjQ1NDYzMyA2NS4yMzc0IC0wLjQ1MjU1MiA2OC4wOTM4IDEuMzYzMDMgNjkuNzQ1M0w2Ljg2OTMzIDc0Ljc1NDFDOC4zNTM2MyA3Ni4xMDQzIDEwLjU4OSA3Ni4yMDM3IDEyLjE4NzIgNzQuOTkwNUwyOS4zNTUxIDYxLjk1ODdMNjguNzY5IDk3LjkxNjdDNjkuMzkyNSA5OC41NDA2IDcwLjEyNDYgOTkuMDEwNCA3MC45MTE5IDk5LjMxNzFaTTc1LjAxNTIgMjcuMjk4OUw0NS4xMDkxIDUwLjAwMDFMNzUuMDE1MiA3Mi43MDEyVjI3LjI5ODlaIiBjbGlwLXJ1bGU9ImV2ZW5vZGQiIGZpbGwtcnVsZT0iZXZlbm9kZCIvPiYjeGE7PC9tYXNrPiYjeGE7PGcgbWFzaz0idXJsKCNtYXNrMCkiPiYjeGE7PHBhdGggZmlsbD0iIzAwNjVBOSIgZD0iTTk2LjQ2MTQgMTAuNzk2Mkw3NS44NTY5IDAuODc1NTQyQzczLjQ3MTkgLTAuMjcyNzczIDcwLjYyMTcgMC4yMTE2MTEgNjguNzUgMi4wODMzM0wxLjI5ODU4IDYzLjU4MzJDLTAuNTE1NjkzIDY1LjIzNzMgLTAuNTEzNjA3IDY4LjA5MzcgMS4zMDMwOCA2OS43NDUyTDYuODEyNzIgNzQuNzU0QzguMjk3OTMgNzYuMTA0MiAxMC41MzQ3IDc2LjIwMzYgMTIuMTMzOCA3NC45OTA1TDkzLjM2MDkgMTMuMzY5OUM5Ni4wODYgMTEuMzAyNiAxMDAgMTMuMjQ2MiAxMDAgMTYuNjY2N1YxNi40Mjc1QzEwMCAxNC4wMjY1IDk4LjYyNDYgMTEuODM3OCA5Ni40NjE0IDEwLjc5NjJaIi8+JiN4YTs8ZyBmaWx0ZXI9InVybCgjZmlsdGVyMF9kKSI+JiN4YTs8cGF0aCBmaWxsPSIjMDA3QUNDIiBkPSJNOTYuNDYxNCA4OS4yMDM4TDc1Ljg1NjkgOTkuMTI0NUM3My40NzE5IDEwMC4yNzMgNzAuNjIxNyA5OS43ODg0IDY4Ljc1IDk3LjkxNjdMMS4yOTg1OCAzNi40MTY5Qy0wLjUxNTY5MyAzNC43NjI3IC0wLjUxMzYwNyAzMS45MDYzIDEuMzAzMDggMzAuMjU0OEw2LjgxMjcyIDI1LjI0NkM4LjI5NzkzIDIzLjg5NTggMTAuNTM0NyAyMy43OTY0IDEyLjEzMzggMjUuMDA5NUw5My4zNjA5IDg2LjYzMDFDOTYuMDg2IDg4LjY5NzQgMTAwIDg2Ljc1MzggMTAwIDgzLjMzMzRWODMuNTcyNkMxMDAgODUuOTczNSA5OC42MjQ2IDg4LjE2MjIgOTYuNDYxNCA4OS4yMDM4WiIvPiYjeGE7PC9nPiYjeGE7PGcgZmlsdGVyPSJ1cmwoI2ZpbHRlcjFfZCkiPiYjeGE7PHBhdGggZmlsbD0iIzFGOUNGMCIgZD0iTTc1Ljg1NzggOTkuMTI2M0M3My40NzIxIDEwMC4yNzQgNzAuNjIxOSA5OS43ODg1IDY4Ljc1IDk3LjkxNjZDNzEuMDU2NCAxMDAuMjIzIDc1IDk4LjU4OTUgNzUgOTUuMzI3OFY0LjY3MjEzQzc1IDEuNDEwMzkgNzEuMDU2NCAtMC4yMjMxMDYgNjguNzUgMi4wODMyOUM3MC42MjE5IDAuMjExNDAyIDczLjQ3MjEgLTAuMjczNjY2IDc1Ljg1NzggMC44NzM2MzNMOTYuNDU4NyAxMC43ODA3Qzk4LjYyMzQgMTEuODIxNyAxMDAgMTQuMDExMiAxMDAgMTYuNDEzMlY4My41ODcxQzEwMCA4NS45ODkxIDk4LjYyMzQgODguMTc4NiA5Ni40NTg2IDg5LjIxOTZMNzUuODU3OCA5OS4xMjYzWiIvPiYjeGE7PC9nPiYjeGE7PGcgb3BhY2l0eT0iMC4yNSIgc3R5bGU9Im1peC1ibGVuZC1tb2RlOm92ZXJsYXkiPiYjeGE7PHBhdGggZmlsbD0idXJsKCNwYWludDBfbGluZWFyKSIgZD0iTTcwLjg1MTEgOTkuMzE3MUM3Mi40MjYxIDk5LjkzMDYgNzQuMjIyMSA5OS44OTEzIDc1LjgxMTcgOTkuMTI2NEw5Ni40IDg5LjIxOTdDOTguNTYzNCA4OC4xNzg3IDk5LjkzOTIgODUuOTg5MiA5OS45MzkyIDgzLjU4NzFWMTYuNDEzM0M5OS45MzkyIDE0LjAxMTIgOTguNTYzNSAxMS44MjE3IDk2LjQwMDEgMTAuNzgwN0w3NS44MTE3IDAuODczNjk1QzczLjcyNTUgLTAuMTMwMTkgNzEuMjgzOCAwLjExNTY5OSA2OS40NTI3IDEuNDQ2ODhDNjkuMTkxMiAxLjYzNzA1IDY4Ljk0MiAxLjg0OTM3IDY4LjcwODIgMi4wODMzNUwyOS4yOTQzIDM4LjA0MTRMMTIuMTI2NCAyNS4wMDk2QzEwLjUyODMgMjMuNzk2NCA4LjI5Mjg1IDIzLjg5NTkgNi44MDg1NSAyNS4yNDZMMS4zMDIyNSAzMC4yNTQ4Qy0wLjUxMzMzNCAzMS45MDY0IC0wLjUxNTQxNSAzNC43NjI3IDEuMjk3NzUgMzYuNDE2OUwxNi4xODYzIDUwTDEuMjk3NzUgNjMuNTgzMkMtMC41MTU0MTUgNjUuMjM3NCAtMC41MTMzMzQgNjguMDkzNyAxLjMwMjI1IDY5Ljc0NTJMNi44MDg1NSA3NC43NTRDOC4yOTI4NSA3Ni4xMDQyIDEwLjUyODMgNzYuMjAzNiAxMi4xMjY0IDc0Ljk5MDVMMjkuMjk0MyA2MS45NTg2TDY4LjcwODIgOTcuOTE2N0M2OS4zMzE3IDk4LjU0MDUgNzAuMDYzOCA5OS4wMTA0IDcwLjg1MTEgOTkuMzE3MVpNNzQuOTU0NCAyNy4yOTg5TDQ1LjA0ODMgNTBMNzQuOTU0NCA3Mi43MDEyVjI3LjI5ODlaIiBjbGlwLXJ1bGU9ImV2ZW5vZGQiIGZpbGwtcnVsZT0iZXZlbm9kZCIvPiYjeGE7PC9nPiYjeGE7PC9nPiYjeGE7PGRlZnM+JiN4YTs8ZmlsdGVyIGNvbG9yLWludGVycG9sYXRpb24tZmlsdGVycz0ic1JHQiIgZmlsdGVyVW5pdHM9InVzZXJTcGFjZU9uVXNlIiBoZWlnaHQ9IjkyLjI0NTYiIHdpZHRoPSIxMTYuNzI3IiB5PSIxNS44MjkxIiB4PSItOC4zOTQxMSIgaWQ9ImZpbHRlcjBfZCI+JiN4YTs8ZmVGbG9vZCByZXN1bHQ9IkJhY2tncm91bmRJbWFnZUZpeCIgZmxvb2Qtb3BhY2l0eT0iMCIvPiYjeGE7PGZlQ29sb3JNYXRyaXggdmFsdWVzPSIwIDAgMCAwIDAgMCAwIDAgMCAwIDAgMCAwIDAgMCAwIDAgMCAxMjcgMCIgdHlwZT0ibWF0cml4IiBpbj0iU291cmNlQWxwaGEiLz4mI3hhOzxmZU9mZnNldC8+JiN4YTs8ZmVHYXVzc2lhbkJsdXIgc3RkRGV2aWF0aW9uPSI0LjE2NjY3Ii8+JiN4YTs8ZmVDb2xvck1hdHJpeCB2YWx1ZXM9IjAgMCAwIDAgMCAwIDAgMCAwIDAgMCAwIDAgMCAwIDAgMCAwIDAuMjUgMCIgdHlwZT0ibWF0cml4Ii8+JiN4YTs8ZmVCbGVuZCByZXN1bHQ9ImVmZmVjdDFfZHJvcFNoYWRvdyIgaW4yPSJCYWNrZ3JvdW5kSW1hZ2VGaXgiIG1vZGU9Im92ZXJsYXkiLz4mI3hhOzxmZUJsZW5kIHJlc3VsdD0ic2hhcGUiIGluMj0iZWZmZWN0MV9kcm9wU2hhZG93IiBpbj0iU291cmNlR3JhcGhpYyIgbW9kZT0ibm9ybWFsIi8+JiN4YTs8L2ZpbHRlcj4mI3hhOzxmaWx0ZXIgY29sb3ItaW50ZXJwb2xhdGlvbi1maWx0ZXJzPSJzUkdCIiBmaWx0ZXJVbml0cz0idXNlclNwYWNlT25Vc2UiIGhlaWdodD0iMTE2LjE1MSIgd2lkdGg9IjQ3LjkxNjciIHk9Ii04LjA3NTU4IiB4PSI2MC40MTY3IiBpZD0iZmlsdGVyMV9kIj4mI3hhOzxmZUZsb29kIHJlc3VsdD0iQmFja2dyb3VuZEltYWdlRml4IiBmbG9vZC1vcGFjaXR5PSIwIi8+JiN4YTs8ZmVDb2xvck1hdHJpeCB2YWx1ZXM9IjAgMCAwIDAgMCAwIDAgMCAwIDAgMCAwIDAgMCAwIDAgMCAwIDEyNyAwIiB0eXBlPSJtYXRyaXgiIGluPSJTb3VyY2VBbHBoYSIvPiYjeGE7PGZlT2Zmc2V0Lz4mI3hhOzxmZUdhdXNzaWFuQmx1ciBzdGREZXZpYXRpb249IjQuMTY2NjciLz4mI3hhOzxmZUNvbG9yTWF0cml4IHZhbHVlcz0iMCAwIDAgMCAwIDAgMCAwIDAgMCAwIDAgMCAwIDAgMCAwIDAgMC4yNSAwIiB0eXBlPSJtYXRyaXgiLz4mI3hhOzxmZUJsZW5kIHJlc3VsdD0iZWZmZWN0MV9kcm9wU2hhZG93IiBpbjI9IkJhY2tncm91bmRJbWFnZUZpeCIgbW9kZT0ib3ZlcmxheSIvPiYjeGE7PGZlQmxlbmQgcmVzdWx0PSJzaGFwZSIgaW4yPSJlZmZlY3QxX2Ryb3BTaGFkb3ciIGluPSJTb3VyY2VHcmFwaGljIiBtb2RlPSJub3JtYWwiLz4mI3hhOzwvZmlsdGVyPiYjeGE7PGxpbmVhckdyYWRpZW50IGdyYWRpZW50VW5pdHM9InVzZXJTcGFjZU9uVXNlIiB5Mj0iOTkuNzQyMyIgeDI9IjQ5LjkzOTIiIHkxPSIwLjI1NzgxMiIgeDE9IjQ5LjkzOTIiIGlkPSJwYWludDBfbGluZWFyIj4mI3hhOzxzdG9wIHN0b3AtY29sb3I9IndoaXRlIi8+JiN4YTs8c3RvcCBzdG9wLW9wYWNpdHk9IjAiIHN0b3AtY29sb3I9IndoaXRlIiBvZmZzZXQ9IjEiLz4mI3hhOzwvbGluZWFyR3JhZGllbnQ+JiN4YTs8L2RlZnM+JiN4YTs8L3N2Zz4=;" vertex="1" parent="1">
          <mxGeometry x="720" y="396" width="50" height="50" as="geometry" />
        </mxCell>
        <mxCell id="bHeEBh-YVMt87xhCcxiK-49" value="" style="shape=image;verticalLabelPosition=bottom;labelBackgroundColor=default;verticalAlign=top;aspect=fixed;imageAspect=0;image=https://upload.wikimedia.org/wikipedia/commons/thumb/3/38/Jupyter_logo.svg/44px-Jupyter_logo.svg.png;" vertex="1" parent="1">
          <mxGeometry x="720" y="260" width="44" height="51" as="geometry" />
        </mxCell>
      </root>
    </mxGraphModel>
  </diagram>
</mxfile>
